# xmcd
#
# Track frame offsets: 
#        150
#        12528
#        26493
#        38585
#        55390
#        71427
#        86060
#        99520
#        115052
#        129027
#        144620
#        159400
#
# Disc length: 2270 seconds
#
# Revision: 3
# Processed by: cddbd v1.5.2PL0 Copyright (c) Steve Scherf et al.
# Submitted via: ExactAudioCopyFreeDBPlugin 1.0
#
DISCID=9508dc0c
DTITLE=Glen Campbell - 1974 - Reunion: The Songs of Jimmy Webb
DYEAR=1974
DGENRE=Country
TTITLE0=By The Time I Get To Phoenix
TTITLE1=Wichita Lineman
TTITLE2=Roll Me Easy
TTITLE3=Just This One Time
TTITLE4=You Might As Well Smile
TTITLE5=Wishing Now
TTITLE6=About The Ocean
TTITLE7=Ocean In His Eyes
TTITLE8=The Moon's A Harsh Mistress
TTITLE9=I Keep It Hid
TTITLE10=Adoration
TTITLE11=It's A Sin
EXTD=
EXTT0=
EXTT1=
EXTT2=
EXTT3=
EXTT4=
EXTT5=
EXTT6=
EXTT7=
EXTT8=
EXTT9=
EXTT10=
EXTT11=
PLAYORDER=
